<svg version="1" xmlns="http://www.w3.org/2000/svg" width="266.667" height="266.667" viewBox="0 0 200.000000 200.000000"><path d="M12 36.5V61h49V12H12v24.5zm42 0V54H19V19h35v17.5z"/><path d="M26 36.5V47h21V26H26v10.5zM68 15.5c0 3.3.2 3.5 3.5 3.5s3.5.2 3.5 3.5-.2 3.5-3.5 3.5H68v21h3.5c3.3 0 3.5-.2 3.5-3.5V40h14v3.5c0 3.3-.2 3.5-3.5 3.5H82v35h-7v14h-7V82H54v3.5c0 3.3.2 3.5 3.5 3.5s3.5.2 3.5 3.5-.2 3.5-3.5 3.5-3.5.2-3.5 3.5v3.5H40v7H19v3.5c0 3.3-.2 3.5-3.5 3.5s-3.5.2-3.5 3.5.2 3.5 3.5 3.5 3.5-.2 3.5-3.5V117h14v3.5c0 3.3.2 3.5 3.5 3.5s3.5.2 3.5 3.5.2 3.5 3.5 3.5 3.5-.2 3.5-3.5.2-3.5 3.5-3.5 3.5.2 3.5 3.5v3.5h14v3.5c0 3.3.2 3.5 3.5 3.5s3.5-.2 3.5-3.5.2-3.5 3.5-3.5 3.5.2 3.5 3.5.2 3.5 3.5 3.5H89v-14h3.5c3.3 0 3.5.2 3.5 3.5s.2 3.5 3.5 3.5 3.5.2 3.5 3.5v3.5h14v-3.5c0-3.3-.2-3.5-3.5-3.5s-3.5-.2-3.5-3.5V124H96v-14h3.5c3.3 0 3.5.2 3.5 3.5s.2 3.5 3.5 3.5 3.5-.2 3.5-3.5-.2-3.5-3.5-3.5-3.5-.2-3.5-3.5V103h14v7h35v3.5c0 3.3-.2 3.5-3.5 3.5s-3.5.2-3.5 3.5-.2 3.5-3.5 3.5-3.5-.2-3.5-3.5V117h-21v3.5c0 3.3.2 3.5 3.5 3.5h3.5v21h-14v7h14v3.5c0 3.3-.2 3.5-3.5 3.5H117v14h-7v-14h-7v14H89v-3.5c0-3.3-.2-3.5-3.5-3.5H82v-21h-7v14h-7v28h14v-3.5c0-3.3-.2-3.5-3.5-3.5H75v-14h3.5c3.3 0 3.5.2 3.5 3.5s.2 3.5 3.5 3.5H89v14h14v-7h21v-14h7v14h14v7h42v-7h-14v-3.5c0-3.3.2-3.5 3.5-3.5s3.5-.2 3.5-3.5.2-3.5 3.5-3.5 3.5-.2 3.5-3.5-.2-3.5-3.5-3.5-3.5-.2-3.5-3.5.2-3.5 3.5-3.5h3.5v-35h-3.5c-3.3 0-3.5-.2-3.5-3.5s.2-3.5 3.5-3.5h3.5V96h-14v-7h-14v-3.5c0-3.3-.2-3.5-3.5-3.5s-3.5-.2-3.5-3.5V75h21v3.5c0 3.3.2 3.5 3.5 3.5s3.5-.2 3.5-3.5.2-3.5 3.5-3.5 3.5-.2 3.5-3.5-.2-3.5-3.5-3.5-3.5.2-3.5 3.5-.2 3.5-3.5 3.5-3.5-.2-3.5-3.5V68h-21v3.5c0 3.3-.2 3.5-3.5 3.5H145v14h-7V68h-14v-3.5c0-3.3.2-3.5 3.5-3.5s3.5-.2 3.5-3.5-.2-3.5-3.5-3.5-3.5.2-3.5 3.5-.2 3.5-3.5 3.5H117V47h14v-3.5c0-3.3-.2-3.5-3.5-3.5s-3.5-.2-3.5-3.5-.2-3.5-3.5-3.5-3.5.2-3.5 3.5-.2 3.5-3.5 3.5H110V26h-3.5c-3.3 0-3.5-.2-3.5-3.5s.2-3.5 3.5-3.5 3.5-.2 3.5-3.5V12H96v3.5c0 3.3-.2 3.5-3.5 3.5s-3.5-.2-3.5-3.5-.2-3.5-3.5-3.5-3.5.2-3.5 3.5-.2 3.5-3.5 3.5-3.5-.2-3.5-3.5-.2-3.5-3.5-3.5-3.5.2-3.5 3.5zm35 14c0 3.3-.2 3.5-3.5 3.5s-3.5.2-3.5 3.5-.2 3.5-3.5 3.5H89V26h14v3.5zm7 31.5v14h3.5c3.3 0 3.5-.2 3.5-3.5s.2-3.5 3.5-3.5h3.5v14h3.5c3.3 0 3.5.2 3.5 3.5s.2 3.5 3.5 3.5 3.5.2 3.5 3.5-.2 3.5-3.5 3.5-3.5-.2-3.5-3.5V89h-14v-3.5c0-3.3-.2-3.5-3.5-3.5s-3.5.2-3.5 3.5-.2 3.5-3.5 3.5-3.5.2-3.5 3.5-.2 3.5-3.5 3.5-3.5.2-3.5 3.5-.2 3.5-3.5 3.5-3.5.2-3.5 3.5-.2 3.5-3.5 3.5-3.5.2-3.5 3.5-.2 3.5-3.5 3.5-3.5.2-3.5 3.5v3.5H54v-7h14v-7h14v-3.5c0-3.3.2-3.5 3.5-3.5H89V89h14V54h-7v14h-7V54h3.5c3.3 0 3.5-.2 3.5-3.5V47h14v14zM96 78.5c0 3.3-.2 3.5-3.5 3.5s-3.5-.2-3.5-3.5.2-3.5 3.5-3.5 3.5.2 3.5 3.5zm63 14c0 3.3.2 3.5 3.5 3.5s3.5.2 3.5 3.5v3.5h14v7h-14v7h14v7h-21V96h-3.5c-3.3 0-3.5-.2-3.5-3.5s.2-3.5 3.5-3.5 3.5.2 3.5 3.5zm-91 7c0 3.3-.2 3.5-3.5 3.5s-3.5.2-3.5 3.5-.2 3.5-3.5 3.5-3.5-.2-3.5-3.5.2-3.5 3.5-3.5 3.5-.2 3.5-3.5.2-3.5 3.5-3.5 3.5.2 3.5 3.5zm-21 14c0 3.3-.2 3.5-3.5 3.5s-3.5-.2-3.5-3.5.2-3.5 3.5-3.5 3.5.2 3.5 3.5zm105 28V152h-21v-21h21v10.5zm14-3.5v7h14v3.5c0 3.3-.2 3.5-3.5 3.5s-3.5.2-3.5 3.5-.2 3.5-3.5 3.5-3.5-.2-3.5-3.5-.2-3.5-3.5-3.5H159v-21h7v7zm14-3.5c0 3.3-.2 3.5-3.5 3.5s-3.5-.2-3.5-3.5.2-3.5 3.5-3.5 3.5.2 3.5 3.5zm-42 28c0 3.3-.2 3.5-3.5 3.5s-3.5-.2-3.5-3.5.2-3.5 3.5-3.5 3.5.2 3.5 3.5zm14 7V180h-7v-21h7v10.5zm14 3.5v7h-7v-14h7v7z"/><path d="M138 141.5c0 3.3.2 3.5 3.5 3.5s3.5-.2 3.5-3.5-.2-3.5-3.5-3.5-3.5.2-3.5 3.5zM124 19v7h7V12h-7v7zM138 36.5V61h49V12h-49v24.5zm42 0V54h-35V19h35v17.5z"/><path d="M152 36.5V47h21V26h-21v10.5zM68 57.5c0 3.3.2 3.5 3.5 3.5s3.5-.2 3.5-3.5-.2-3.5-3.5-3.5-3.5.2-3.5 3.5zM12 71.5V75h21v7H19v7h21v-3.5c0-3.3.2-3.5 3.5-3.5s3.5-.2 3.5-3.5-.2-3.5-3.5-3.5-3.5-.2-3.5-3.5V68H12v3.5zM54 71.5c0 3.3.2 3.5 3.5 3.5s3.5-.2 3.5-3.5-.2-3.5-3.5-3.5-3.5.2-3.5 3.5zM68 71.5c0 3.3.2 3.5 3.5 3.5s3.5-.2 3.5-3.5-.2-3.5-3.5-3.5-3.5.2-3.5 3.5zM12 99.5v3.5h21v-7H12v3.5zM12 162.5V187h49v-49H12v24.5zm42 0V180H19v-35h35v17.5z"/><path d="M26 162.5V173h21v-21H26v10.5zM89 148.5c0 3.3.2 3.5 3.5 3.5s3.5-.2 3.5-3.5-.2-3.5-3.5-3.5-3.5.2-3.5 3.5z"/></svg>